<svg width="20" height="19" viewBox="0 0 20 19" fill="none" xmlns="http://www.w3.org/2000/svg">
<path d="M10 0C10.3149 0 10.617 0.125111 10.8397 0.347811C11.0624 0.57051 11.1875 0.872555 11.1875 1.1875V8.3125H18.3125C18.6274 8.3125 18.9295 8.43761 19.1522 8.66031C19.3749 8.88301 19.5 9.18506 19.5 9.5C19.5 9.81494 19.3749 10.117 19.1522 10.3397C18.9295 10.5624 18.6274 10.6875 18.3125 10.6875H11.1875V17.8125C11.1875 18.1274 11.0624 18.4295 10.8397 18.6522C10.617 18.8749 10.3149 19 10 19C9.68506 19 9.38301 18.8749 9.16031 18.6522C8.93761 18.4295 8.8125 18.1274 8.8125 17.8125V10.6875H1.6875C1.37256 10.6875 1.07051 10.5624 0.847811 10.3397C0.625111 10.117 0.5 9.81494 0.5 9.5C0.5 9.18506 0.625111 8.88301 0.847811 8.66031C1.07051 8.43761 1.37256 8.3125 1.6875 8.3125H8.8125V1.1875C8.8125 0.872555 8.93761 0.57051 9.16031 0.347811C9.38301 0.125111 9.68506 0 10 0Z" fill="#FFFEFE"/>
</svg>
