<svg width="22" height="22" viewBox="0 0 22 22" fill="none" xmlns="http://www.w3.org/2000/svg">
<path fill-rule="evenodd" clip-rule="evenodd" d="M0.0482159 6.12742C0.0482159 5.00617 0.935059 4.06547 2.15961 4.06345C3.38429 4.0613 4.17538 4.06548 4.17538 4.06548C4.17538 4.06548 4.12276 2.86722 4.12276 1.91427C4.12276 0.96105 4.96729 0.00715705 6.19265 0.00715705C7.41801 0.00715705 18.7788 -0.0278478 19.9309 0.0569726C21.083 0.141793 22 0.86115 22 2.01821C22 3.17526 21.9927 14.648 21.9927 15.7106C21.9927 16.7732 21.0325 17.7387 19.842 17.752C18.6515 17.7654 17.8446 17.7385 17.8446 17.7385C17.8446 17.7385 17.8884 19.0808 17.8884 19.9053C17.8884 20.7297 16.9228 21.927 15.7898 21.927C14.6568 21.927 3.16092 22 2.06399 22C0.967066 22 -0.0452291 21.0419 0.00156105 19.8476C0.0483512 18.6532 0.0483514 7.24839 0.0483514 6.12742H0.0482159ZM6.29504 2.29206L6.28582 15.5084C6.28582 15.656 6.40707 15.7763 6.55693 15.7755L19.5165 15.7069C19.5885 15.7065 19.6575 15.6779 19.7083 15.6272C19.7591 15.5764 19.7875 15.5078 19.7874 15.4362L19.7788 2.33851C19.7786 2.2668 19.7499 2.19807 19.6988 2.14741C19.6477 2.09675 19.5784 2.06829 19.5062 2.06829L6.56765 2.0244C6.532 2.02405 6.49663 2.0307 6.46359 2.04399C6.43055 2.05728 6.40049 2.07694 6.37515 2.10182C6.3498 2.12671 6.32967 2.15633 6.31592 2.18898C6.30217 2.22163 6.29508 2.25667 6.29504 2.29206ZM2.14469 6.67538L2.26892 19.6335C2.26981 19.7049 2.29913 19.773 2.35046 19.823C2.40179 19.873 2.47097 19.9008 2.54288 19.9004L15.3085 19.8041C15.3796 19.8037 15.4499 19.7893 15.5154 19.7618C15.5809 19.7343 15.6403 19.6942 15.6902 19.6438C15.74 19.5935 15.7793 19.5338 15.8058 19.4683C15.8323 19.4027 15.8455 19.3327 15.8446 19.2621L15.826 17.7626C15.826 17.7626 7.29839 17.8404 6.18939 17.8404C5.0804 17.8404 4.09563 16.7984 4.09563 15.6257C4.09563 14.453 4.17538 6.37622 4.17538 6.37622C4.17674 6.22812 4.05685 6.1083 3.90739 6.11032L2.68311 6.12782C2.53864 6.12977 2.40084 6.18851 2.29991 6.29114C2.19899 6.39378 2.14317 6.53196 2.14469 6.67538Z" fill="#FEAC1A"/>
</svg>
