<svg width="18" height="17" viewBox="0 0 18 17" fill="none" xmlns="http://www.w3.org/2000/svg">
<path d="M6 4.5H15.1388L12.4485 1.8105L13.5 0.75L18 5.25L13.5 9.75L12.4485 8.68875L15.1365 6H6C4.80653 6 3.66193 6.47411 2.81802 7.31802C1.97411 8.16193 1.5 9.30653 1.5 10.5C1.5 11.6935 1.97411 12.8381 2.81802 13.682C3.66193 14.5259 4.80653 15 6 15H12V16.5H6C4.4087 16.5 2.88258 15.8679 1.75736 14.7426C0.632141 13.6174 0 12.0913 0 10.5C0 8.9087 0.632141 7.38258 1.75736 6.25736C2.88258 5.13214 4.4087 4.5 6 4.5Z" fill="#FEAC1A"/>
</svg>
