<svg width="22" height="25" viewBox="0 0 22 25" fill="none" xmlns="http://www.w3.org/2000/svg">
<mask id="path-1-inside-1_158_247" fill="white">
<path d="M9.75481 1.28743C10.0913 0.969266 10.5369 0.791992 11 0.791992C11.4631 0.791992 11.9087 0.969266 12.2452 1.28743L21.0249 9.58686C21.5687 10.0998 21.875 10.8157 21.875 11.5625V21.6581C21.875 22.3792 21.5886 23.0707 21.0787 23.5806C20.5688 24.0904 19.8773 24.3769 19.1562 24.3769H15.5312C15.1741 24.3769 14.8204 24.3065 14.4904 24.1697C14.1604 24.033 13.8606 23.8326 13.6082 23.5799C13.3557 23.3273 13.1555 23.0273 13.0189 22.6973C12.8824 22.3672 12.8123 22.0135 12.8125 21.6563V17.1251C12.8125 16.8847 12.717 16.6542 12.5471 16.4842C12.3771 16.3143 12.1466 16.2188 11.9062 16.2188H10.0938C9.8534 16.2188 9.62289 16.3143 9.45293 16.4842C9.28298 16.6542 9.1875 16.8847 9.1875 17.1251V21.6563C9.1875 22.3774 8.90106 23.0689 8.3912 23.5788C7.88133 24.0886 7.18981 24.3751 6.46875 24.3751H2.84375C2.12269 24.3751 1.43117 24.0886 0.921304 23.5788C0.411439 23.0689 0.125 22.3774 0.125 21.6563V11.5607C0.125 10.8139 0.433125 10.098 0.976875 9.58505L9.75481 1.2838V1.28743ZM11 2.6033L2.22025 10.9046C2.13112 10.989 2.06009 11.0908 2.01149 11.2036C1.96288 11.3164 1.93771 11.4379 1.9375 11.5607V21.6563C1.9375 21.8967 2.03298 22.1272 2.20293 22.2971C2.37289 22.4671 2.6034 22.5626 2.84375 22.5626H6.46875C6.7091 22.5626 6.93961 22.4671 7.10957 22.2971C7.27952 22.1272 7.375 21.8967 7.375 21.6563V17.1251C7.375 16.404 7.66144 15.7125 8.1713 15.2026C8.68117 14.6927 9.37269 14.4063 10.0938 14.4063H11.9062C12.6273 14.4063 13.3188 14.6927 13.8287 15.2026C14.3386 15.7125 14.625 16.404 14.625 17.1251V21.6563C14.625 21.8967 14.7205 22.1272 14.8904 22.2971C15.0604 22.4671 15.2909 22.5626 15.5312 22.5626H19.1562C19.3966 22.5626 19.6271 22.4671 19.7971 22.2971C19.967 22.1272 20.0625 21.8967 20.0625 21.6563V11.5607C20.0625 11.4376 20.0375 11.3157 19.9889 11.2026C19.9403 11.0895 19.8691 10.9874 19.7797 10.9027L11 2.6033Z"/>
</mask>
<path d="M9.75481 1.28743C10.0913 0.969266 10.5369 0.791992 11 0.791992C11.4631 0.791992 11.9087 0.969266 12.2452 1.28743L21.0249 9.58686C21.5687 10.0998 21.875 10.8157 21.875 11.5625V21.6581C21.875 22.3792 21.5886 23.0707 21.0787 23.5806C20.5688 24.0904 19.8773 24.3769 19.1562 24.3769H15.5312C15.1741 24.3769 14.8204 24.3065 14.4904 24.1697C14.1604 24.033 13.8606 23.8326 13.6082 23.5799C13.3557 23.3273 13.1555 23.0273 13.0189 22.6973C12.8824 22.3672 12.8123 22.0135 12.8125 21.6563V17.1251C12.8125 16.8847 12.717 16.6542 12.5471 16.4842C12.3771 16.3143 12.1466 16.2188 11.9062 16.2188H10.0938C9.8534 16.2188 9.62289 16.3143 9.45293 16.4842C9.28298 16.6542 9.1875 16.8847 9.1875 17.1251V21.6563C9.1875 22.3774 8.90106 23.0689 8.3912 23.5788C7.88133 24.0886 7.18981 24.3751 6.46875 24.3751H2.84375C2.12269 24.3751 1.43117 24.0886 0.921304 23.5788C0.411439 23.0689 0.125 22.3774 0.125 21.6563V11.5607C0.125 10.8139 0.433125 10.098 0.976875 9.58505L9.75481 1.2838V1.28743ZM11 2.6033L2.22025 10.9046C2.13112 10.989 2.06009 11.0908 2.01149 11.2036C1.96288 11.3164 1.93771 11.4379 1.9375 11.5607V21.6563C1.9375 21.8967 2.03298 22.1272 2.20293 22.2971C2.37289 22.4671 2.6034 22.5626 2.84375 22.5626H6.46875C6.7091 22.5626 6.93961 22.4671 7.10957 22.2971C7.27952 22.1272 7.375 21.8967 7.375 21.6563V17.1251C7.375 16.404 7.66144 15.7125 8.1713 15.2026C8.68117 14.6927 9.37269 14.4063 10.0938 14.4063H11.9062C12.6273 14.4063 13.3188 14.6927 13.8287 15.2026C14.3386 15.7125 14.625 16.404 14.625 17.1251V21.6563C14.625 21.8967 14.7205 22.1272 14.8904 22.2971C15.0604 22.4671 15.2909 22.5626 15.5312 22.5626H19.1562C19.3966 22.5626 19.6271 22.4671 19.7971 22.2971C19.967 22.1272 20.0625 21.8967 20.0625 21.6563V11.5607C20.0625 11.4376 20.0375 11.3157 19.9889 11.2026C19.9403 11.0895 19.8691 10.9874 19.7797 10.9027L11 2.6033Z" fill="black"/>
<path d="M9.75481 1.28743H6.75481V8.25219L11.8158 3.4674L9.75481 1.28743ZM11 0.791992V3.79199V0.791992ZM12.2452 1.28743L10.1842 3.4674L10.1843 3.46754L12.2452 1.28743ZM21.0249 9.58686L18.9641 11.767L18.9663 11.7691L21.0249 9.58686ZM21.875 21.6581H24.875H21.875ZM15.5312 24.3769V21.3769H15.5312L15.5312 24.3769ZM12.8125 21.6563L15.8125 21.6583V21.6563H12.8125ZM9.1875 21.6563H12.1875H9.1875ZM6.46875 24.3751V27.3751V24.3751ZM2.84375 24.3751V27.3751V24.3751ZM0.125 21.6563H-2.875H0.125ZM0.976875 9.58505L3.03547 11.7673L3.03819 11.7647L0.976875 9.58505ZM9.75481 1.2838H12.7548V-5.68233L7.6935 -0.895878L9.75481 1.2838ZM11 2.6033L13.0608 0.423185L10.9998 -1.52513L8.93891 0.42341L11 2.6033ZM2.22025 10.9046L0.159162 8.72466L0.156254 8.72742L2.22025 10.9046ZM1.9375 11.5607L-1.0625 11.5555V11.5607H1.9375ZM10.0938 14.4063V11.4063V14.4063ZM11.9062 14.4063V11.4063V14.4063ZM14.625 17.1251H17.625H14.625ZM20.0625 11.5607L17.0625 11.5598V11.5607H20.0625ZM19.7797 10.9027L21.8438 8.72561L21.8406 8.72262L19.7797 10.9027ZM11.8158 3.4674C11.5953 3.67585 11.3034 3.79199 11 3.79199V-2.20801C9.77035 -2.20801 8.58735 -1.73731 7.69381 -0.892547L11.8158 3.4674ZM11 3.79199C10.6966 3.79199 10.4047 3.67585 10.1842 3.4674L14.3062 -0.892547C13.4127 -1.73732 12.2296 -2.20801 11 -2.20801V3.79199ZM10.1843 3.46754L18.9641 11.767L23.0858 7.40675L14.306 -0.89269L10.1843 3.46754ZM18.9663 11.7691C18.9045 11.7108 18.875 11.6352 18.875 11.5625H24.875C24.875 9.99624 24.2328 8.48879 23.0835 7.40461L18.9663 11.7691ZM18.875 11.5625V21.6581H24.875V11.5625H18.875ZM18.875 21.6581C18.875 21.5835 18.9046 21.512 18.9574 21.4592L23.2 25.7019C24.2725 24.6294 24.875 23.1748 24.875 21.6581H18.875ZM18.9574 21.4592C19.0101 21.4065 19.0817 21.3769 19.1562 21.3769V27.3769C20.673 27.3769 22.1275 26.7744 23.2 25.7019L18.9574 21.4592ZM19.1562 21.3769H15.5312V27.3769H19.1562V21.3769ZM15.5312 21.3769C15.5682 21.3769 15.6048 21.3841 15.6389 21.3983L13.3419 26.9412C14.036 27.2288 14.7799 27.3769 15.5313 27.3769L15.5312 21.3769ZM15.6389 21.3983C15.6731 21.4124 15.7041 21.4332 15.7302 21.4593L11.4861 25.7005C12.0172 26.232 12.6478 26.6536 13.3419 26.9412L15.6389 21.3983ZM15.7302 21.4593C15.7563 21.4854 15.777 21.5165 15.7911 21.5506L10.2467 23.8439C10.5339 24.5382 10.955 25.1691 11.4861 25.7005L15.7302 21.4593ZM15.7911 21.5506C15.8053 21.5848 15.8125 21.6214 15.8125 21.6583L9.8125 21.6543C9.812 22.4056 9.95955 23.1497 10.2467 23.8439L15.7911 21.5506ZM15.8125 21.6563V17.1251H9.8125V21.6563H15.8125ZM15.8125 17.1251C15.8125 16.0891 15.401 15.0955 14.6684 14.3629L10.4257 18.6056C10.0331 18.2129 9.8125 17.6803 9.8125 17.1251H15.8125ZM14.6684 14.3629C13.9358 13.6303 12.9422 13.2188 11.9062 13.2188V19.2188C11.351 19.2188 10.8184 18.9982 10.4257 18.6056L14.6684 14.3629ZM11.9062 13.2188H10.0938V19.2188H11.9062V13.2188ZM10.0938 13.2188C9.05775 13.2188 8.06418 13.6303 7.33161 14.3629L11.5743 18.6056C11.1816 18.9982 10.649 19.2188 10.0938 19.2188V13.2188ZM7.33161 14.3629C6.59905 15.0955 6.1875 16.0891 6.1875 17.1251H12.1875C12.1875 17.6803 11.9669 18.2129 11.5743 18.6056L7.33161 14.3629ZM6.1875 17.1251V21.6563H12.1875V17.1251H6.1875ZM6.1875 21.6563C6.1875 21.5817 6.21713 21.5102 6.26988 21.4574L10.5125 25.7001C11.585 24.6276 12.1875 23.173 12.1875 21.6563H6.1875ZM6.26988 21.4574C6.32262 21.4047 6.39416 21.3751 6.46875 21.3751V27.3751C7.98546 27.3751 9.44004 26.7725 10.5125 25.7001L6.26988 21.4574ZM6.46875 21.3751H2.84375V27.3751H6.46875V21.3751ZM2.84375 21.3751C2.91834 21.3751 2.98988 21.4047 3.04262 21.4574L-1.20002 25.7001C-0.127543 26.7725 1.32704 27.3751 2.84375 27.3751V21.3751ZM3.04262 21.4574C3.09537 21.5102 3.125 21.5817 3.125 21.6563H-2.875C-2.875 23.173 -2.27249 24.6276 -1.20002 25.7001L3.04262 21.4574ZM3.125 21.6563V11.5607H-2.875V21.6563H3.125ZM3.125 11.5607C3.125 11.6384 3.09368 11.7124 3.03546 11.7673L-1.08171 7.4028C-2.22743 8.48359 -2.875 9.98946 -2.875 11.5607H3.125ZM3.03819 11.7647L11.8161 3.46348L7.6935 -0.895878L-1.08444 7.40537L3.03819 11.7647ZM6.75481 1.2838V1.28743H12.7548V1.2838H6.75481ZM8.93891 0.42341L0.159164 8.72466L4.28134 13.0844L13.0611 4.78319L8.93891 0.42341ZM0.156254 8.72742C-0.227934 9.09164 -0.534074 9.53015 -0.743579 10.0163L4.76656 12.3908C4.65426 12.6514 4.49017 12.8865 4.28425 13.0817L0.156254 8.72742ZM-0.743579 10.0163C-0.953087 10.5025 -1.06159 11.0262 -1.0625 11.5555L4.9375 11.5658C4.93701 11.8496 4.87885 12.1303 4.76656 12.3908L-0.743579 10.0163ZM-1.0625 11.5607V21.6563H4.9375V11.5607H-1.0625ZM-1.0625 21.6563C-1.0625 22.6923 -0.65095 23.6859 0.0816142 24.4184L4.32425 20.1758C4.71691 20.5685 4.9375 21.101 4.9375 21.6563H-1.0625ZM0.0816142 24.4184C0.814182 25.151 1.80775 25.5626 2.84375 25.5626V19.5626C3.39904 19.5626 3.9316 19.7831 4.32425 20.1758L0.0816142 24.4184ZM2.84375 25.5626H6.46875V19.5626H2.84375V25.5626ZM6.46875 25.5626C7.50475 25.5626 8.49832 25.151 9.23089 24.4184L4.98825 20.1758C5.3809 19.7831 5.91346 19.5626 6.46875 19.5626V25.5626ZM9.23089 24.4184C9.96345 23.6859 10.375 22.6923 10.375 21.6563H4.375C4.375 21.101 4.59559 20.5685 4.98825 20.1758L9.23089 24.4184ZM10.375 21.6563V17.1251H4.375V21.6563H10.375ZM10.375 17.1251C10.375 17.1996 10.3454 17.2712 10.2926 17.3239L6.04998 13.0813C4.97751 14.1538 4.375 15.6083 4.375 17.1251H10.375ZM10.2926 17.3239C10.2399 17.3767 10.1683 17.4063 10.0938 17.4063V11.4063C8.57704 11.4063 7.12246 12.0088 6.04998 13.0813L10.2926 17.3239ZM10.0938 17.4063H11.9062V11.4063H10.0938V17.4063ZM11.9062 17.4063C11.8317 17.4063 11.7601 17.3767 11.7074 17.3239L15.95 13.0813C14.8775 12.0088 13.423 11.4063 11.9062 11.4063V17.4063ZM11.7074 17.3239C11.6546 17.2712 11.625 17.1996 11.625 17.1251H17.625C17.625 15.6083 17.0225 14.1538 15.95 13.0813L11.7074 17.3239ZM11.625 17.1251V21.6563H17.625V17.1251H11.625ZM11.625 21.6563C11.625 22.6923 12.0365 23.6859 12.7691 24.4184L17.0118 20.1758C17.4044 20.5685 17.625 21.101 17.625 21.6563H11.625ZM12.7691 24.4184C13.5017 25.151 14.4953 25.5626 15.5312 25.5626V19.5626C16.0865 19.5626 16.6191 19.7831 17.0118 20.1758L12.7691 24.4184ZM15.5312 25.5626H19.1562V19.5626H15.5312V25.5626ZM19.1562 25.5626C20.1922 25.5626 21.1858 25.151 21.9184 24.4184L17.6757 20.1758C18.0684 19.7831 18.601 19.5626 19.1562 19.5626V25.5626ZM21.9184 24.4184C22.651 23.6859 23.0625 22.6923 23.0625 21.6563H17.0625C17.0625 21.101 17.2831 20.5685 17.6757 20.1758L21.9184 24.4184ZM23.0625 21.6563V11.5607H17.0625V21.6563H23.0625ZM23.0625 11.5615C23.0627 11.0309 22.9547 10.5057 22.7451 10.0181L17.2326 12.3871C17.1203 12.1257 17.0624 11.8443 17.0625 11.5598L23.0625 11.5615ZM22.7451 10.0181C22.5356 9.53049 22.2289 9.09072 21.8438 8.72561L17.7157 13.0799C17.5093 12.8842 17.3449 12.6485 17.2326 12.3871L22.7451 10.0181ZM21.8406 8.72262L13.0608 0.423185L8.93915 4.78342L17.7189 13.0829L21.8406 8.72262Z" fill="black" mask="url(#path-1-inside-1_158_247)"/>
</svg>
