<svg width="28" height="28" viewBox="0 0 28 28" fill="none" xmlns="http://www.w3.org/2000/svg">
<path d="M5.30134 16.361C4.67052 16.9606 3.3656 18.1598 3.3656 18.1598C1.56962 19.8646 1.52015 22.9073 3.3656 24.6614C5.20857 26.4132 8.15981 26.4508 9.95578 24.7437L16.3431 19.232M11.4537 9.73365L17.9993 3.25559C19.7953 1.54967 22.7453 1.58611 24.5895 3.34024C26.435 5.09202 26.4745 7.89722 24.6786 9.60432L22.3161 11.9827L11.4537 9.73365Z" stroke="#FEAC1A" stroke-width="3" stroke-linecap="round" stroke-linejoin="round"/>
<path d="M16.2553 12.9677C18.0983 14.7206 18.1391 17.5258 16.3432 19.2317M11.7295 15.8681C10.9083 15.0919 10.4117 14.0587 10.3318 12.9606C10.2842 12.3447 10.3764 11.7262 10.6022 11.1471C10.828 10.5679 11.1821 10.0417 11.6405 9.604L11.7295 15.8681Z" stroke="#FEAC1A" stroke-width="3" stroke-linecap="round" stroke-linejoin="round"/>
</svg>
