<svg width="212" height="48" viewBox="0 0 212 48" fill="none" xmlns="http://www.w3.org/2000/svg">
<path d="M55 5C51.8506 5 48.8301 6.25111 46.6031 8.47811C44.3761 10.7051 43.125 13.7256 43.125 16.875C43.1385 18.7594 43.6189 20.6112 44.5232 22.2645C45.4276 23.9178 46.7277 25.3211 48.3073 26.3489L50.25 31.125C49.9351 31.125 49.633 31.2501 49.4103 31.4728C49.1876 31.6955 49.0625 31.9976 49.0625 32.3125C49.0625 32.6274 49.1876 32.9295 49.4103 33.1522C49.633 33.3749 49.9351 33.5 50.25 33.5C49.9351 33.5 49.633 33.6251 49.4103 33.8478C49.1876 34.0705 49.0625 34.3726 49.0625 34.6875C49.0625 35.0024 49.1876 35.3045 49.4103 35.5272C49.633 35.7499 49.9351 35.875 50.25 35.875C49.9351 35.875 49.633 36.0001 49.4103 36.2228C49.1876 36.4455 49.0625 36.7476 49.0625 37.0625C49.0625 37.3774 49.1876 37.6795 49.4103 37.9022C49.633 38.1249 49.9351 38.25 50.25 38.25C49.9351 38.25 49.633 38.3751 49.4103 38.5978C49.1876 38.8205 49.0625 39.1226 49.0625 39.4375C49.0625 39.7524 49.1876 40.0545 49.4103 40.2772C49.633 40.4999 49.9351 40.625 50.25 40.625H51.2237C52.036 41.9313 53.3969 42.8314 54.9786 42.9976C55.7477 42.9222 56.4891 42.6709 57.1455 42.2632C57.8019 41.8555 58.3558 41.3023 58.7644 40.6464L59.75 40.625C60.0649 40.625 60.367 40.4999 60.5897 40.2772C60.8124 40.0545 60.9375 39.7524 60.9375 39.4375C60.9375 39.1226 60.8124 38.8205 60.5897 38.5978C60.367 38.3751 60.0649 38.25 59.75 38.25C60.0649 38.25 60.367 38.1249 60.5897 37.9022C60.8124 37.6795 60.9375 37.3774 60.9375 37.0625C60.9375 36.7476 60.8124 36.4455 60.5897 36.2228C60.367 36.0001 60.0649 35.875 59.75 35.875C60.0649 35.875 60.367 35.7499 60.5897 35.5272C60.8124 35.3045 60.9375 35.0024 60.9375 34.6875C60.9375 34.3726 60.8124 34.0705 60.5897 33.8478C60.367 33.6251 60.0649 33.5 59.75 33.5C60.0649 33.5 60.367 33.3749 60.5897 33.1522C60.8124 32.9295 60.9375 32.6274 60.9375 32.3125C60.9375 31.9976 60.8124 31.6955 60.5897 31.4728C60.367 31.2501 60.0649 31.125 59.75 31.125L61.65 26.375C63.2397 25.3494 64.5496 23.9447 65.4616 22.2872C66.3737 20.6297 66.8594 18.7715 66.875 16.8797C66.8753 15.32 66.5684 13.7754 65.9718 12.3343C65.3752 10.8931 64.5006 9.58362 63.3979 8.48048C62.2952 7.37735 60.986 6.5022 59.5451 5.90502C58.1042 5.30784 56.5598 5.00031 55 5V5ZM60.3438 24.4988L59.75 24.9025L59.4888 25.5912L57.375 30.6738C57.3261 30.8049 57.2387 30.9182 57.1243 30.9987C57.0098 31.0792 56.8737 31.1233 56.7337 31.125H53.1475C53.0294 31.1025 52.9192 31.0494 52.8279 30.9711C52.7367 30.8927 52.6675 30.7919 52.6274 30.6785L50.5588 25.5912L50.25 24.9025L49.6562 24.475C48.3995 23.6414 47.3645 22.5147 46.6404 21.1919C45.9163 19.869 45.5249 18.3899 45.5 16.8821C45.4995 15.6346 45.7448 14.3991 46.2218 13.2464C46.6988 12.0936 47.3981 11.0461 48.28 10.1636C50.0609 8.3813 52.4769 7.37951 54.9964 7.37856C57.516 7.37762 59.9327 8.3776 61.715 10.1585C63.4973 11.9395 64.4991 14.3554 64.5 16.875C64.4821 18.3818 64.0973 19.8615 63.3789 21.1862C62.6605 22.5108 61.6301 23.6405 60.377 24.4774L60.3438 24.4988Z" fill="#FAE212"/>
<path d="M31.9964 7.824V42H28.9244L8.28437 14.496V42H4.58837V7.824H7.61237L28.2524 35.328V7.824H31.9964ZM88.3281 11.184H76.4241V7.824H104.216V11.184H92.3121V42H88.3281V11.184ZM116.194 7.824H120.13V42H116.194V7.824ZM150.073 42.384C146.905 42.384 144.153 41.68 141.817 40.272C139.481 38.864 137.673 36.848 136.393 34.224C135.145 31.568 134.521 28.464 134.521 24.912C134.521 21.328 135.145 18.224 136.393 15.6C137.641 12.976 139.433 10.96 141.769 9.552C144.105 8.144 146.873 7.44 150.073 7.44C153.273 7.44 156.041 8.144 158.377 9.552C160.713 10.96 162.505 12.976 163.753 15.6C165.001 18.224 165.625 21.312 165.625 24.864C165.625 28.448 164.985 31.552 163.705 34.176C162.457 36.8 160.665 38.832 158.329 40.272C155.993 41.68 153.241 42.384 150.073 42.384ZM150.073 39.024C153.689 39.024 156.505 37.792 158.521 35.328C160.537 32.864 161.545 29.376 161.545 24.864C161.545 20.352 160.537 16.88 158.521 14.448C156.537 12.016 153.721 10.8 150.073 10.8C146.425 10.8 143.593 12.032 141.577 14.496C139.561 16.928 138.553 20.384 138.553 24.864C138.553 29.376 139.561 32.864 141.577 35.328C143.593 37.792 146.425 39.024 150.073 39.024ZM207.455 7.824V42H204.383L183.743 14.496V42H180.047V7.824H183.071L203.711 35.328V7.824H207.455Z" fill="black"/>
</svg>
