<svg width="210" height="48" viewBox="0 0 210 48" fill="none" xmlns="http://www.w3.org/2000/svg">
<path d="M56 6C53.0163 6 50.1548 7.18526 48.045 9.29505C45.9353 11.4048 44.75 14.2663 44.75 17.25C44.7627 19.0353 45.2179 20.7895 46.0746 22.3558C46.9314 23.9221 48.1631 25.2516 49.6595 26.2253L51.5 30.75C51.2016 30.75 50.9155 30.8685 50.7045 31.0795C50.4935 31.2905 50.375 31.5766 50.375 31.875C50.375 32.1734 50.4935 32.4595 50.7045 32.6705C50.9155 32.8815 51.2016 33 51.5 33C51.2016 33 50.9155 33.1185 50.7045 33.3295C50.4935 33.5405 50.375 33.8266 50.375 34.125C50.375 34.4234 50.4935 34.7095 50.7045 34.9205C50.9155 35.1315 51.2016 35.25 51.5 35.25C51.2016 35.25 50.9155 35.3685 50.7045 35.5795C50.4935 35.7905 50.375 36.0766 50.375 36.375C50.375 36.6734 50.4935 36.9595 50.7045 37.1705C50.9155 37.3815 51.2016 37.5 51.5 37.5C51.2016 37.5 50.9155 37.6185 50.7045 37.8295C50.4935 38.0405 50.375 38.3266 50.375 38.625C50.375 38.9234 50.4935 39.2095 50.7045 39.4205C50.9155 39.6315 51.2016 39.75 51.5 39.75H52.4225C53.192 40.9875 54.4813 41.8402 55.9798 41.9977C56.7083 41.9263 57.4107 41.6882 58.0326 41.302C58.6545 40.9157 59.1792 40.3916 59.5663 39.7702L60.5 39.75C60.7984 39.75 61.0845 39.6315 61.2955 39.4205C61.5065 39.2095 61.625 38.9234 61.625 38.625C61.625 38.3266 61.5065 38.0405 61.2955 37.8295C61.0845 37.6185 60.7984 37.5 60.5 37.5C60.7984 37.5 61.0845 37.3815 61.2955 37.1705C61.5065 36.9595 61.625 36.6734 61.625 36.375C61.625 36.0766 61.5065 35.7905 61.2955 35.5795C61.0845 35.3685 60.7984 35.25 60.5 35.25C60.7984 35.25 61.0845 35.1315 61.2955 34.9205C61.5065 34.7095 61.625 34.4234 61.625 34.125C61.625 33.8266 61.5065 33.5405 61.2955 33.3295C61.0845 33.1185 60.7984 33 60.5 33C60.7984 33 61.0845 32.8815 61.2955 32.6705C61.5065 32.4595 61.625 32.1734 61.625 31.875C61.625 31.5766 61.5065 31.2905 61.2955 31.0795C61.0845 30.8685 60.7984 30.75 60.5 30.75L62.3 26.25C63.8061 25.2784 65.0469 23.9476 65.911 22.3774C66.7751 20.8071 67.2352 19.0467 67.25 17.2545C67.2503 15.7768 66.9595 14.3136 66.3943 12.9483C65.8291 11.583 65.0005 10.3424 63.9559 9.2973C62.9112 8.25222 61.671 7.42314 60.3059 6.85739C58.9408 6.29164 57.4777 6.0003 56 6V6ZM61.0625 24.4725L60.5 24.855L60.2525 25.5075L58.25 30.3225C58.2037 30.4467 58.1209 30.5541 58.0125 30.6303C57.904 30.7066 57.7751 30.7484 57.6425 30.75H54.245C54.1331 30.7286 54.0287 30.6784 53.9423 30.6042C53.8558 30.5299 53.7903 30.4344 53.7522 30.327L51.7925 25.5075L51.5 24.855L50.9375 24.45C49.7469 23.6603 48.7664 22.5928 48.0804 21.3396C47.3944 20.0865 47.0236 18.6852 47 17.2567C46.9996 16.0749 47.2319 14.9044 47.6838 13.8123C48.1357 12.7202 48.7982 11.7278 49.6337 10.8918C51.3208 9.20334 53.6097 8.25427 55.9966 8.25338C58.3836 8.25248 60.6731 9.19983 62.3616 10.887C64.05 12.5742 64.9991 14.8631 65 17.25C64.983 18.6775 64.6185 20.0794 63.9379 21.3343C63.2573 22.5892 62.2812 23.6594 61.094 24.4523L61.0625 24.4725Z" fill="#FEAC1A"/>
<path d="M31.7342 7.824V42H28.6622L8.02219 14.496V42H4.32619V7.824H7.35019L27.9902 35.328V7.824H31.7342ZM88.9903 11.184H77.0863V7.824H104.878V11.184H92.9743V42H88.9903V11.184ZM116.136 7.824H120.072V42H116.136V7.824ZM149.295 42.384C146.127 42.384 143.375 41.68 141.039 40.272C138.703 38.864 136.895 36.848 135.615 34.224C134.367 31.568 133.743 28.464 133.743 24.912C133.743 21.328 134.367 18.224 135.615 15.6C136.863 12.976 138.655 10.96 140.991 9.552C143.327 8.144 146.095 7.44 149.295 7.44C152.495 7.44 155.263 8.144 157.599 9.552C159.935 10.96 161.727 12.976 162.975 15.6C164.223 18.224 164.847 21.312 164.847 24.864C164.847 28.448 164.207 31.552 162.927 34.176C161.679 36.8 159.887 38.832 157.551 40.272C155.215 41.68 152.463 42.384 149.295 42.384ZM149.295 39.024C152.911 39.024 155.727 37.792 157.743 35.328C159.759 32.864 160.767 29.376 160.767 24.864C160.767 20.352 159.759 16.88 157.743 14.448C155.759 12.016 152.943 10.8 149.295 10.8C145.647 10.8 142.815 12.032 140.799 14.496C138.783 16.928 137.775 20.384 137.775 24.864C137.775 29.376 138.783 32.864 140.799 35.328C142.815 37.792 145.647 39.024 149.295 39.024ZM205.717 7.824V42H202.645L182.005 14.496V42H178.309V7.824H181.333L201.973 35.328V7.824H205.717Z" fill="black"/>
</svg>
