<svg width="18" height="16" viewBox="0 0 18 16" fill="none" xmlns="http://www.w3.org/2000/svg">
<path d="M16.2219 13.7931L12.1391 10.0171C13.1202 8.92772 13.6095 7.53048 13.5051 6.11601C13.4007 4.70154 12.7107 3.37875 11.5786 2.42282C10.4465 1.46688 8.95954 0.951395 7.42698 0.983601C5.89442 1.01581 4.43429 1.59322 3.35033 2.59573C2.26637 3.59823 1.64204 4.94864 1.60722 6.36604C1.5724 7.78343 2.12976 9.15867 3.16337 10.2057C4.19698 11.2527 5.62725 11.8908 7.15664 11.9874C8.68603 12.0839 10.1968 11.6315 11.3746 10.7241L15.4574 14.5001L16.2219 13.7931ZM2.70627 6.50006C2.70627 5.61004 2.99163 4.74001 3.52627 3.99999C4.06091 3.25997 4.82082 2.68319 5.7099 2.3426C6.59897 2.00201 7.57729 1.91289 8.52113 2.08652C9.46497 2.26016 10.3319 2.68874 11.0124 3.31808C11.6929 3.94741 12.1563 4.74924 12.344 5.62215C12.5318 6.49507 12.4354 7.39987 12.0671 8.22213C11.6989 9.0444 11.0752 9.74721 10.2751 10.2417C9.47494 10.7361 8.53422 11.0001 7.57189 11.0001C6.28189 10.9987 5.04513 10.5242 4.13295 9.68058C3.22078 8.83695 2.7077 7.69313 2.70627 6.50006Z" fill="#C4C4C4"/>
</svg>
