<svg width="27" height="27" viewBox="0 0 27 27" fill="none" xmlns="http://www.w3.org/2000/svg">
<path d="M22.7812 14.1413V13.5V12.8503L24.4012 11.4328C24.6999 11.1696 24.8958 10.8093 24.9545 10.4156C25.0132 10.0219 24.9308 9.6201 24.7219 9.28126L22.7306 5.90626C22.5827 5.64998 22.3699 5.43712 22.1137 5.28902C21.8575 5.14093 21.5669 5.06281 21.2709 5.06251C21.0875 5.0611 20.9052 5.0896 20.7309 5.14688L18.6806 5.83876C18.3266 5.60353 17.9574 5.39212 17.5753 5.20595L17.145 3.07969C17.0678 2.69124 16.8565 2.34229 16.548 2.09394C16.2395 1.8456 15.8535 1.71367 15.4575 1.72126H11.5087C11.1128 1.71367 10.7267 1.8456 10.4182 2.09394C10.1097 2.34229 9.89841 2.69124 9.82125 3.07969L9.39094 5.20595C9.00613 5.39208 8.63407 5.60348 8.27719 5.83876L6.26906 5.11313C6.09297 5.06725 5.91061 5.05016 5.72906 5.06251C5.43314 5.06281 5.1425 5.14093 4.88629 5.28902C4.63009 5.43712 4.41734 5.64998 4.26937 5.90626L2.27812 9.28126C2.08118 9.61959 2.008 10.0159 2.07111 10.4022C2.13422 10.7886 2.3297 11.141 2.62406 11.3991L4.21875 12.8588V14.1497L2.62406 15.5672C2.32138 15.8271 2.12056 16.1858 2.05723 16.5797C1.9939 16.9735 2.07216 17.3771 2.27812 17.7188L4.26937 21.0938C4.41734 21.35 4.63009 21.5629 4.88629 21.711C5.1425 21.8591 5.43314 21.9372 5.72906 21.9375C5.91245 21.9389 6.09484 21.9104 6.26906 21.8531L8.31937 21.1613C8.67336 21.3965 9.04262 21.6079 9.42469 21.7941L9.855 23.9203C9.93216 24.3088 10.1435 24.6577 10.452 24.9061C10.7605 25.1544 11.1465 25.2863 11.5425 25.2788H15.525C15.921 25.2863 16.307 25.1544 16.6155 24.9061C16.924 24.6577 17.1353 24.3088 17.2125 23.9203L17.6428 21.7941C18.0276 21.6079 18.3997 21.3965 18.7566 21.1613L20.7984 21.8531C20.9727 21.9104 21.155 21.9389 21.3384 21.9375C21.6344 21.9372 21.925 21.8591 22.1812 21.711C22.4374 21.5629 22.6502 21.35 22.7981 21.0938L24.7219 17.7188C24.9188 17.3804 24.992 16.9841 24.9289 16.5978C24.8658 16.2114 24.6703 15.859 24.3759 15.6009L22.7812 14.1413ZM21.2709 20.25L18.3769 19.2713C17.6994 19.8451 16.9251 20.2937 16.0903 20.5959L15.4913 23.625H11.5087L10.9097 20.6297C10.0815 20.3188 9.31139 19.871 8.63156 19.305L5.72906 20.25L3.73781 16.875L6.03281 14.85C5.8768 13.9766 5.8768 13.0825 6.03281 12.2091L3.73781 10.125L5.72906 6.75001L8.62312 7.72876C9.3006 7.15492 10.0749 6.70635 10.9097 6.40407L11.5087 3.37501H15.4913L16.0903 6.37032C16.9185 6.68118 17.6886 7.12897 18.3684 7.69501L21.2709 6.75001L23.2622 10.125L20.9672 12.15C21.1232 13.0234 21.1232 13.9175 20.9672 14.7909L23.2622 16.875L21.2709 20.25Z" fill="black"/>
<path d="M13.5 18.5625C12.4987 18.5625 11.5199 18.2656 10.6874 17.7093C9.8549 17.153 9.20603 16.3624 8.82286 15.4373C8.43969 14.5123 8.33944 13.4944 8.53477 12.5124C8.73011 11.5303 9.21227 10.6283 9.92027 9.92027C10.6283 9.21227 11.5303 8.73011 12.5124 8.53478C13.4944 8.33944 14.5123 8.43969 15.4373 8.82286C16.3624 9.20603 17.153 9.8549 17.7093 10.6874C18.2656 11.52 18.5625 12.4987 18.5625 13.5C18.5693 14.1667 18.4429 14.828 18.1909 15.4453C17.9389 16.0626 17.5663 16.6234 17.0948 17.0948C16.6234 17.5663 16.0626 17.9389 15.4453 18.1909C14.828 18.4429 14.1667 18.5693 13.5 18.5625V18.5625ZM13.5 10.125C13.0539 10.1146 12.6104 10.1948 12.1963 10.3607C11.7821 10.5267 11.4059 10.7749 11.0904 11.0904C10.7749 11.4059 10.5267 11.7821 10.3607 12.1963C10.1948 12.6104 10.1146 13.0539 10.125 13.5C10.1146 13.9461 10.1948 14.3896 10.3607 14.8037C10.5267 15.2179 10.7749 15.5941 11.0904 15.9096C11.4059 16.2251 11.7821 16.4733 12.1963 16.6393C12.6104 16.8052 13.0539 16.8854 13.5 16.875C13.9461 16.8854 14.3896 16.8052 14.8037 16.6393C15.2179 16.4733 15.5941 16.2251 15.9096 15.9096C16.2251 15.5941 16.4733 15.2179 16.6393 14.8037C16.8052 14.3896 16.8854 13.9461 16.875 13.5C16.8854 13.0539 16.8052 12.6104 16.6393 12.1963C16.4733 11.7821 16.2251 11.4059 15.9096 11.0904C15.5941 10.7749 15.2179 10.5267 14.8037 10.3607C14.3896 10.1948 13.9461 10.1146 13.5 10.125Z" fill="black"/>
</svg>
