<svg width="22" height="23" viewBox="0 0 22 23" fill="none" xmlns="http://www.w3.org/2000/svg">
<path d="M7.22418 13.8898L7.23268 13.8865C7.23818 13.8844 7.24623 13.8813 7.25578 13.8774C7.2749 13.8697 7.30266 13.8578 7.3351 13.8416L8.81008 13.1041L7.47429 12.1371C5.9585 11.0398 4.97657 9.25972 4.97657 7.25195C4.97657 3.92435 7.67241 1.22852 11 1.22852C14.3276 1.22852 17.0234 3.92435 17.0234 7.25195C17.0234 9.2599 16.0414 11.0395 14.5266 12.1337L13.1882 13.1004L14.6649 13.8388C14.6973 13.855 14.7251 13.8668 14.7442 13.8746C14.7491 13.8766 14.7536 13.8784 14.7575 13.8799C15.903 14.3648 16.9438 15.0669 17.8225 15.9475L17.8246 15.9496C18.7059 16.8275 19.4079 17.8684 19.8917 19.0143L19.8922 19.0155C20.2663 19.8983 20.5031 20.8218 20.6003 21.7715H20.4467C20.221 19.6138 19.2704 17.6114 17.7167 16.0576C15.9234 14.2644 13.5366 13.2754 11 13.2754C8.46344 13.2754 6.07659 14.2644 4.28333 16.0576C2.72961 17.6114 1.77902 19.6138 1.55327 21.7715H1.39924C1.49622 20.8252 1.73452 19.8973 2.10747 19.0191L2.10795 19.0179C2.5929 17.872 3.29518 16.8308 4.176 15.9518L4.17777 15.95C5.06358 15.0616 6.09366 14.3674 7.24261 13.8827L7.27231 13.8702L7.30111 13.8558C7.27668 13.868 7.25615 13.8769 7.24252 13.8825C7.24121 13.883 7.23997 13.8835 7.2388 13.884L7.22418 13.8898ZM7.22418 13.8898L7.22204 13.8906C7.22111 13.8909 7.22104 13.891 7.22147 13.8908C7.22194 13.8906 7.22299 13.8902 7.22418 13.8898ZM20.4958 22.5279L20.4958 22.5247L20.4958 22.5279ZM1.35128 22.5643L1.35139 22.5586L1.35128 22.5643ZM14.7788 13.8881C14.7788 13.8881 14.7775 13.8875 14.7758 13.8869L14.778 13.8877L14.7788 13.8881ZM15.4802 12.0151C15.4783 12.0144 15.4801 12.015 15.4824 12.0159L15.4802 12.0151ZM6.84915 11.4028C7.9569 12.5106 9.43461 13.123 11 13.123C12.5654 13.123 14.0431 12.5106 15.1509 11.4028C16.2586 10.2951 16.8711 8.81735 16.8711 7.25195C16.8711 5.68655 16.2586 4.20884 15.1509 3.1011C14.0431 1.99335 12.5654 1.38086 11 1.38086C9.43461 1.38086 7.9569 1.99335 6.84915 3.1011C5.7414 4.20884 5.12891 5.68655 5.12891 7.25195C5.12891 8.81735 5.7414 10.2951 6.84915 11.4028Z" fill="black" stroke="black" stroke-width="2"/>
</svg>
